<svg width="109.007080" height="172.266479" viewBox="0 0 109.007 172.266" fill="none" xmlns="http://www.w3.org/2000/svg" xmlns:xlink="http://www.w3.org/1999/xlink">
	<desc>
			Created with Pixso.
	</desc>
	<defs>
		<linearGradient id="paint_linear_15_25_0" x1="0.000000" y1="86.133270" x2="109.007065" y2="86.133270" gradientUnits="userSpaceOnUse">
			<stop stop-color="#F04393"/>
			<stop offset="1.000000" stop-color="#F9C449"/>
		</linearGradient>
		<linearGradient id="paint_linear_15_26_0" x1="0.000000" y1="86.133278" x2="109.007080" y2="86.133278" gradientUnits="userSpaceOnUse">
			<stop stop-color="#F04393"/>
			<stop offset="1.000000" stop-color="#F9C449"/>
		</linearGradient>
		<linearGradient id="paint_linear_15_27_0" x1="0.000013" y1="86.133270" x2="109.007095" y2="86.133270" gradientUnits="userSpaceOnUse">
			<stop stop-color="#F04393"/>
			<stop offset="1.000000" stop-color="#F9C449"/>
		</linearGradient>
		<linearGradient id="paint_linear_15_28_0" x1="0.000013" y1="86.133270" x2="109.007095" y2="86.133270" gradientUnits="userSpaceOnUse">
			<stop stop-color="#F04393"/>
			<stop offset="1.000000" stop-color="#F9C449"/>
		</linearGradient>
		<linearGradient id="paint_linear_15_29_0" x1="0.000183" y1="86.133270" x2="109.007271" y2="86.133270" gradientUnits="userSpaceOnUse">
			<stop stop-color="#F04393"/>
			<stop offset="1.000000" stop-color="#F9C449"/>
		</linearGradient>
	</defs>
	<path id="element-id-73736" d="M107.385 154.237C105.425 152.363 102.377 152.325 100.338 154.114C94.981 158.819 87.7502 161.81 78.6943 161.81C57.0842 161.81 45.7827 144.826 45.7827 128.053L45.7593 23.9868C45.7615 15.3955 41.0486 0.27478 22.8796 0.27478C4.94531 0.27478 0 15.3955 0 23.9868C0 23.9868 0 138.459 0 146.93C0 153.831 10.4438 153.907 10.4438 146.93C10.4438 138.039 10.4438 23.9867 10.4438 23.9867C10.4438 19.481 13.2639 10.0321 22.8818 10.0321C32.9011 10.0321 35.3198 19.6224 35.3198 23.9867L35.3303 128.053C35.3303 150.023 50.2229 172.266 78.6985 172.266C90.6062 172.266 100.188 168.198 107.29 161.884C109.551 159.869 109.576 156.33 107.385 154.237Z" fill="url(#paint_linear_15_28_0)" fill-opacity="1.000000" fill-rule="nonzero"/>
	<path id="element-id-73736" d="M100.338 154.114C94.981 158.819 87.7502 161.81 78.6943 161.81C57.0842 161.81 45.7827 144.826 45.7827 128.053L45.7593 23.9868C45.7615 15.3955 41.0486 0.27478 22.8796 0.27478C4.94531 0.27478 0 15.3955 0 23.9868C0 23.9868 0 138.459 0 146.93C0 153.831 10.4438 153.907 10.4438 146.93C10.4438 138.039 10.4438 23.9867 10.4438 23.9867C10.4438 19.481 13.2639 10.0321 22.8818 10.0321C32.9011 10.0321 35.3198 19.6224 35.3198 23.9867L35.3303 128.053C35.3303 150.023 50.2229 172.266 78.6985 172.266C90.6062 172.266 100.188 168.198 107.29 161.884C109.551 159.869 109.576 156.33 107.385 154.237C105.425 152.363 102.377 152.325 100.338 154.114Z" stroke="#000000" stroke-opacity="0" stroke-width="1.000000"/>
	<path id="element-id-27221" d="M101.585 41.8794C101.585 36.2479 101.585 31.0946 101.585 23.7714C101.585 12.33 96.4893 0 78.2148 0C60.967 0 55.8237 11.9948 55.8237 23.7714L55.8237 34.5388C55.8237 37.8844 57.1497 41.0956 59.5144 43.4652L89.293 73.3289C90.4758 74.5155 91.1414 76.1237 91.1414 77.7982L91.1414 128.694C91.1414 136.309 88.2678 142.062 78.7029 142.062C69.0002 142.062 66.2646 136.355 66.2646 128.694C66.2646 128.694 66.2646 87.1511 66.2646 72.0757C66.2646 64.8942 55.8213 64.9274 55.8213 72.0757C55.8213 87.0094 55.8213 128.694 55.8213 128.694C55.8213 139.545 61.1445 152.168 78.7004 152.168C96.6667 152.168 101.581 134.752 101.581 128.694L101.581 76.0916C101.581 72.7435 100.254 69.5311 97.8879 67.1591L68.1648 37.3496C66.9473 36.1309 66.2646 34.4858 66.2646 32.7618C66.2646 29.1182 66.2646 23.7689 66.2646 23.7689C66.2646 4.46191 91.1389 5.8667 91.1389 23.7689C91.1389 30.6732 91.1389 35.5382 91.1389 41.8768C91.1389 48.5433 101.582 48.9008 101.585 41.8794Z" fill="url(#paint_linear_15_29_0)" fill-opacity="1.000000" fill-rule="nonzero"/>
	<path id="element-id-27221" d="M101.585 23.7714C101.585 12.33 96.4893 0 78.2148 0C60.967 0 55.8237 11.9948 55.8237 23.7714L55.8237 34.5388C55.8237 37.8844 57.1497 41.0956 59.5144 43.4652L89.293 73.3289C90.4758 74.5155 91.1414 76.1237 91.1414 77.7982L91.1414 128.694C91.1414 136.309 88.2678 142.062 78.7029 142.062C69.0002 142.062 66.2646 136.355 66.2646 128.694C66.2646 128.694 66.2646 87.1511 66.2646 72.0757C66.2646 64.8942 55.8213 64.9274 55.8213 72.0757C55.8213 87.0094 55.8213 128.694 55.8213 128.694C55.8213 139.545 61.1445 152.168 78.7004 152.168C96.6667 152.168 101.581 134.752 101.581 128.694L101.581 76.0916C101.581 72.7435 100.254 69.5311 97.8879 67.1591L68.1648 37.3496C66.9473 36.1309 66.2646 34.4858 66.2646 32.7618C66.2646 29.1182 66.2646 23.7689 66.2646 23.7689C66.2646 4.46191 91.1389 5.8667 91.1389 23.7689C91.1389 30.6732 91.1389 35.5382 91.1389 41.8768C91.1389 48.5433 101.582 48.9008 101.585 41.8794C101.585 36.2479 101.585 31.0946 101.585 23.7714Z" stroke="#000000" stroke-opacity="0" stroke-width="1.000000"/>
</svg>
